<svg width="2215" height="2215" viewBox="0 0 2215 2215" fill="none" xmlns="http://www.w3.org/2000/svg">
<path d="M1107.44 0C1719.04 0 2214.88 495.847 2214.88 1107.45C2214.88 1719.06 1719.04 2215 1107.44 2215C495.844 2215 0 1719.15 0 1107.45C0 495.847 495.844 0 1107.44 0Z" fill="#1E30CA"/>
<mask id="mask0" style="mask-type:luminance" maskUnits="userSpaceOnUse" x="559" y="475" width="1160" height="1353">
<path d="M1718.85 475.654H559.988V1827.62H1718.85V475.654Z" fill="white"/>
</mask>
<g mask="url(#mask0)">
<path fill-rule="evenodd" clip-rule="evenodd" d="M1209.27 644.615H559.988V499.778H1214.22L1216.65 499.965C1436.38 514.645 1588.05 690.057 1609.74 877.812C1620.77 973.092 1598.7 1073.51 1534.66 1158.88C1470.51 1244.35 1368.5 1309.52 1228.72 1342.8C1223.2 1344.11 1217.59 1344.77 1211.98 1344.77H1151.58L1534.94 1798.63C1544.66 1810.13 1536.43 1827.62 1521.47 1827.62H1377.29C1372.05 1827.62 1367.19 1825.37 1363.83 1821.35L961.3 1344.77H560.175V1199.93H1057.42C1154.29 1199.93 1255.55 1196.19 1337.74 1144.95C1372.9 1122.98 1399.45 1097.92 1418.9 1072.02C1458.92 1018.63 1473.13 956.074 1466.02 894.456C1451.53 768.974 1350.74 655.274 1209.55 644.708L1209.27 644.615ZM559.988 861.917H1115.3C1155.32 861.917 1187.76 894.362 1187.76 934.382C1187.76 974.401 1155.32 1006.85 1115.3 1006.85H559.988V862.01V861.917Z" fill="white"/>
<path d="M598.231 538.112L559.988 499.87V644.706L598.231 606.463C617.118 587.576 617.118 557 598.231 538.206V538.112Z" fill="#1E30CA"/>
<path d="M598.231 900.255L559.988 862.012V1006.85L598.231 968.512C617.118 949.625 617.118 919.049 598.231 900.255Z" fill="#1E30CA"/>
<path d="M598.231 1238.17L559.988 1199.93V1344.77L598.231 1306.52C617.118 1287.64 617.118 1257.06 598.231 1238.27V1238.17Z" fill="#1E30CA"/>
</g>
</svg>
