<svg width="6910" height="2215" viewBox="0 0 6910 2215" fill="none" xmlns="http://www.w3.org/2000/svg">
<g clip-path="url(#clip0_1_132554)">
<path d="M1107.44 -0.00110057C1719.04 -0.00110057 2214.88 495.847 2214.88 1107.45C2214.88 1719.06 1719.04 2214.91 1107.44 2214.91C495.844 2215 0.00195312 1719.15 0.00195312 1107.45C0.00195312 495.847 495.844 -0.00110057 1107.44 -0.00110057Z" fill="#1E30CA"/>
<mask id="mask0_1_132554" style="mask-type:luminance" maskUnits="userSpaceOnUse" x="559" y="475" width="1160" height="1353">
<path d="M1718.85 475.654H559.988V1827.62H1718.85V475.654Z" fill="white"/>
</mask>
<g mask="url(#mask0_1_132554)">
<path fill-rule="evenodd" clip-rule="evenodd" d="M1209.27 644.615H559.988V499.778H1214.22L1216.65 499.965C1436.38 514.645 1588.05 690.057 1609.74 877.812C1620.77 973.092 1598.7 1073.51 1534.66 1158.88C1470.51 1244.35 1368.5 1309.52 1228.72 1342.8C1223.2 1344.11 1217.59 1344.77 1211.98 1344.77H1151.58L1534.94 1798.63C1544.66 1810.13 1536.43 1827.62 1521.47 1827.62H1377.29C1372.05 1827.62 1367.19 1825.37 1363.83 1821.35L961.3 1344.77H560.175V1199.93H1057.42C1154.29 1199.93 1255.55 1196.19 1337.74 1144.95C1372.9 1122.98 1399.45 1097.92 1418.9 1072.02C1458.92 1018.63 1473.13 956.074 1466.02 894.456C1451.53 768.974 1350.74 655.274 1209.55 644.708L1209.27 644.615ZM559.988 861.917H1115.3C1155.32 861.917 1187.76 894.362 1187.76 934.382C1187.76 974.401 1155.32 1006.85 1115.3 1006.85H559.988V862.01V861.917Z" fill="white"/>
<path d="M598.231 538.112L559.988 499.87V644.706L598.231 606.463C617.118 587.576 617.118 557 598.231 538.206V538.112Z" fill="#1E30CA"/>
<path d="M598.231 900.255L559.988 862.012V1006.85L598.231 968.512C617.118 949.625 617.118 919.049 598.231 900.255Z" fill="#1E30CA"/>
<path d="M598.231 1238.17L559.988 1199.93V1344.77L598.231 1306.52C617.118 1287.64 617.118 1257.06 598.231 1238.27V1238.17Z" fill="#1E30CA"/>
</g>
<path d="M5578.63 1827.61C5470.16 1827.61 5372.55 1803.86 5285.87 1756.46C5199.1 1707.65 5130.66 1639.2 5080.54 1551.12C5031.73 1463.04 5007.33 1361.31 5007.33 1246.12C5007.33 1130.92 5032.39 1029.19 5082.6 941.109C5134.12 853.028 5203.87 785.239 5292.04 737.739C5380.12 688.93 5478.39 664.526 5586.85 664.526C5695.32 664.526 5793.59 688.93 5881.67 737.739C5969.75 785.145 6038.94 852.935 6089.05 941.109C6140.57 1029.19 6166.29 1130.92 6166.29 1246.12C6166.29 1361.31 6139.83 1463.04 6087 1551.12C6035.48 1639.2 5964.98 1707.65 5875.5 1756.46C5787.42 1803.86 5688.4 1827.61 5578.63 1827.61ZM5583.3 1606.01C5634.82 1606.01 5682.97 1593.86 5727.67 1569.45C5773.77 1543.64 5807.99 1490.25 5835.1 1440.14C5862.22 1390.02 5873.44 1318.02 5873.44 1246.21C5873.44 1139.15 5835.38 1030.59 5778.44 973.648C5722.9 915.395 5654.46 886.222 5573.11 886.222C5491.76 886.222 5423.32 915.395 5367.78 973.648C5313.55 1030.59 5296.06 1139.15 5296.06 1246.21C5296.06 1353.27 5327.11 1462.39 5380.03 1520.64C5434.26 1577.59 5502.05 1606.01 5583.4 1606.01H5583.3Z" fill="#1E30CA"/>
<path d="M4308.98 1830.54C4200.52 1830.54 4102.9 1806.79 4016.23 1759.38C3929.46 1710.57 3861.01 1642.13 3810.9 1554.05C3762.09 1465.97 3737.69 1364.24 3737.69 1249.04C3737.69 1133.85 3762.74 1032.11 3812.95 944.034C3864.47 855.954 3934.23 788.164 4022.4 740.664C4110.48 691.856 4208.75 667.451 4317.21 667.451C4425.67 667.451 4523.95 691.856 4612.02 740.664C4700.1 788.071 4769.3 855.86 4819.41 944.034C4870.93 1032.11 4896.65 1133.85 4896.65 1249.04C4896.65 1364.24 4870.18 1465.97 4817.36 1554.05C4765.84 1642.13 4695.33 1710.57 4605.85 1759.38C4517.77 1806.79 4418.76 1830.54 4308.98 1830.54ZM4313.66 1608.94C4365.18 1608.94 4413.33 1596.78 4458.03 1572.38C4504.12 1546.57 4538.34 1493.18 4565.46 1443.06C4592.58 1392.94 4603.8 1320.95 4603.8 1249.14C4603.8 1142.07 4565.74 1033.52 4508.8 976.573C4453.26 918.321 4384.81 889.148 4303.47 889.148C4222.12 889.148 4153.68 918.321 4098.14 976.573C4043.91 1033.52 4026.42 1142.07 4026.42 1249.14C4026.42 1356.2 4057.46 1465.31 4110.39 1523.57C4164.62 1580.51 4232.41 1608.94 4313.75 1608.94H4313.66Z" fill="#1E30CA"/>
<path d="M3345.32 1827.24L3025.08 1251.63H2887.82V1827.24H2596.65V390.001H3141.49C3253.79 390.001 3349.44 410.105 3428.45 450.311C3507.46 489.115 3566.36 542.505 3605.26 610.482C3645.47 677.056 3665.57 737.553 3665.57 820.771C3665.57 916.425 3637.89 1003.1 3582.35 1080.71C3526.91 1156.92 3452.01 1222.55 3342.52 1251.73L3682.21 1827.33H3345.32V1827.24ZM2887.82 1019.84H3131.11C3210.12 1019.84 3269.03 1001.14 3307.92 963.738C3346.73 924.934 3366.18 894.919 3366.18 827.036C3366.18 759.152 3334.85 731.756 3310.82 706.043C3272.3 664.714 3227.14 664.714 3131.2 664.714H2887.91V1019.93L2887.82 1019.84Z" fill="#1E30CA"/>
<path d="M6652.13 888.655V1499.14C6652.13 1537.94 6661.1 1566.37 6679.15 1584.41C6698.6 1601.06 6730.48 1609.38 6774.8 1609.38H6910.01V1829.77H6727.02C6481.67 1829.77 6358.9 1735.51 6358.9 1497.08V888.655H6221.64V667.145H6358.9V390.189H6652.13V667.145H6910.01V888.655H6652.13Z" fill="#1E30CA"/>
</g>
<defs>
<clipPath id="clip0_1_132554">
<rect width="6910" height="2215" fill="white"/>
</clipPath>
</defs>
</svg>
